<?xml version="1.0" encoding="utf-8"?>
<svg viewBox="0 0 786.81995 572.25773" shape-rendering="geometricPrecision" text-rendering="geometricPrecision" style="background-color:transparent" xmlns="http://www.w3.org/2000/svg">
  <defs>
    <style>
#e7I4aDVbzAF44_to {animation: e7I4aDVbzAF44_to__to 2000ms linear infinite normal forwards}@keyframes e7I4aDVbzAF44_to__to { 0% {transform: translate(560.807037px,384.878571px)} 100% {transform: translate(560.807037px,327.88px)}} #e7I4aDVbzAF81_to {animation: e7I4aDVbzAF81_to__to 2000ms linear infinite normal forwards}@keyframes e7I4aDVbzAF81_to__to { 0% {transform: translate(560.807037px,441.878571px)} 100% {transform: translate(560.807037px,384.88px)}} #e7I4aDVbzAF120_to {animation: e7I4aDVbzAF120_to__to 2000ms linear infinite normal forwards}@keyframes e7I4aDVbzAF120_to__to { 0% {transform: translate(-205.59px,-163.871px)} 5% {transform: translate(-210.063291px,-175.935585px)} 10% {transform: translate(-206.59px,-163.871px)} 15% {transform: translate(-206.59px,-175.934441px)} 20% {transform: translate(-206.59px,-163.874441px)} 25% {transform: translate(-206.59px,-175.934441px)} 30% {transform: translate(-206.59px,-163.874441px)} 35% {transform: translate(-206.59px,-175.934441px)} 40% {transform: translate(-206.59px,-163.874441px)} 45% {transform: translate(-206.59px,-175.934441px)} 50% {transform: translate(-206.59px,-163.874441px)} 55% {transform: translate(-206.59px,-175.934441px)} 60% {transform: translate(-206.59px,-163.874441px)} 65% {transform: translate(-206.59px,-175.934441px)} 70% {transform: translate(-206.59px,-163.874441px)} 75% {transform: translate(-206.59px,-175.934441px)} 80% {transform: translate(-206.59px,-163.874441px)} 85% {transform: translate(-206.59px,-175.934441px)} 90% {transform: translate(-206.59px,-163.874441px)} 95% {transform: translate(-206.59px,-175.934441px)} 100% {transform: translate(-206.59px,-163.874441px)}} #e7I4aDVbzAF137_to {animation: e7I4aDVbzAF137_to__to 2000ms linear infinite normal forwards}@keyframes e7I4aDVbzAF137_to__to { 0% {transform: translate(234.744118px,266.249969px)} 45% {transform: translate(234.744118px,266.249969px)} 50% {transform: translate(234.744118px,260.249969px)} 55% {transform: translate(234.744118px,265.672969px)} 100% {transform: translate(234.744118px,265.672969px)}}
</style>
  </defs>
  <path d="M206.59,598.16193c8.687253,10.293495,18.083492,19.967077,28.12,28.95l730.58,1c10.036508-8.982923,19.432747-18.656505,28.12-28.95Z" transform="matrix(1, 0, 0, 1, -206.589996, -163.871002)" fill="#e9e8f9"/>
  <path d="M702.01993,505.46245v85.704c.001798,2.274151,1.844909,4.117267,4.11906,4.11907h127.00449c2.274157-.001792,4.117278-1.844913,4.11907-4.11907v-85.704c-.005402-2.271921-1.847144-4.111629-4.11907-4.11452h-127.00448c-2.271923.002897-4.113662,1.842601-4.11907,4.11452Z" transform="matrix(1, 0, 0, 1, -206.589996, -163.871002)" fill="#d8d7e8"/>
  <path d="M704.99939,506.52881v83.58039c.002103,1.214933.986477,2.199307,2.20141,2.20141h124.88546c1.214935-.002097,2.199313-.986475,2.20141-2.20141v-83.58039c-.000113-1.216502-.984911-2.203353-2.20141-2.206h-124.88546c-1.216495.002658-2.201286.989502-2.20141,2.206Z" transform="matrix(1, 0, 0, 1, -206.589996, -163.871002)" fill="#546e7a"/>
  <path d="M699.36376,607.881c.471372.591049,1.187474.933665,1.94346.92984h135.99195c.753183-.000942,1.46588-.341078,1.940341-.926033s.660215-1.352499.505719-2.089667l-2.111-10.02722c-.177769-.830828-.764252-1.515075-1.55811-1.81784-.282888-.110986-.584119-.167806-.888-.1675h-131.77827c-.303881-.000311-.605113.056509-.888.1675-.793883.302729-1.38038.986992-1.55811,1.81784l-2.111,10.02722c-.152107.736758.035579,1.502846.51102,2.08586Z" transform="matrix(1, 0, 0, 1, -206.589996, -163.871002)" fill="#d8d7e8"/>
  <rect width="4.18849" height="2.51309" rx="0.48819" ry="0.48819" transform="matrix(-1, 0, 0, -1, 627.635986, 434.231995)" fill="#3f3d56"/>
  <rect width="4.18849" height="2.51309" rx="0.48819" ry="0.48819" transform="matrix(-1, 0, 0, -1, 619.252991, 434.231995)" fill="#3f3d56"/>
  <rect width="4.18849" height="2.51309" rx="0.48819" ry="0.48819" transform="matrix(-1, 0, 0, -1, 610.880005, 434.231995)" fill="#3f3d56"/>
  <rect width="4.18849" height="2.51309" rx="0.48819" ry="0.48819" transform="matrix(-1, 0, 0, -1, 602.497009, 434.231995)" fill="#3f3d56"/>
  <rect width="4.18849" height="2.51309" rx="0.48819" ry="0.48819" transform="matrix(-1, 0, 0, -1, 594.124023, 434.231995)" fill="#3f3d56"/>
  <rect width="4.18849" height="2.51309" rx="0.48819" ry="0.48819" transform="matrix(-1, 0, 0, -1, 585.750977, 434.231995)" fill="#3f3d56"/>
  <rect width="4.18849" height="2.51309" rx="0.48819" ry="0.48819" transform="matrix(-1, 0, 0, -1, 577.367981, 434.231995)" fill="#3f3d56"/>
  <rect width="4.18849" height="2.51309" rx="0.48819" ry="0.48819" transform="matrix(-1, 0, 0, -1, 568.994995, 434.231995)" fill="#3f3d56"/>
  <rect width="4.18849" height="2.51309" rx="0.48819" ry="0.48819" transform="matrix(-1, 0, 0, -1, 560.612, 434.231995)" fill="#3f3d56"/>
  <rect width="4.18849" height="2.51309" rx="0.48819" ry="0.48819" transform="matrix(-1, 0, 0, -1, 552.239014, 434.231995)" fill="#3f3d56"/>
  <rect width="4.18849" height="2.51309" rx="0.48819" ry="0.48819" transform="matrix(-1, 0, 0, -1, 543.866028, 434.231995)" fill="#3f3d56"/>
  <rect width="4.18849" height="2.51309" rx="0.48819" ry="0.48819" transform="matrix(-1, 0, 0, -1, 535.482971, 434.231995)" fill="#3f3d56"/>
  <rect width="4.18849" height="2.51309" rx="0.48819" ry="0.48819" transform="matrix(-1, 0, 0, -1, 527.109985, 434.231995)" fill="#3f3d56"/>
  <rect width="4.18849" height="2.51309" rx="0.48819" ry="0.48819" transform="matrix(-1, 0, 0, -1, 518.72699, 434.231995)" fill="#3f3d56"/>
  <rect width="4.18849" height="2.51309" rx="0.48819" ry="0.48819" transform="matrix(-1, 0, 0, -1, 510.354004, 434.231995)" fill="#3f3d56"/>
  <rect width="4.18849" height="2.51309" rx="0.48819" ry="0.48819" transform="matrix(-1, 0, 0, -1, 501.980988, 434.231995)" fill="#3f3d56"/>
  <rect width="4.18849" height="2.51309" rx="0.48819" ry="0.48819" transform="matrix(-1, 0, 0, -1, 627.72699, 438.423004)" fill="#3f3d56"/>
  <rect width="4.18849" height="2.51309" rx="0.48819" ry="0.48819" transform="matrix(-1, 0, 0, -1, 619.354004, 438.423004)" fill="#3f3d56"/>
  <rect width="4.18849" height="2.51309" rx="0.48819" ry="0.48819" transform="matrix(-1, 0, 0, -1, 610.981018, 438.423004)" fill="#3f3d56"/>
  <rect width="4.18849" height="2.51309" rx="0.48819" ry="0.48819" transform="matrix(-1, 0, 0, -1, 602.598022, 438.423004)" fill="#3f3d56"/>
  <rect width="4.18849" height="2.51309" rx="0.48819" ry="0.48819" transform="matrix(-1, 0, 0, -1, 594.224976, 438.423004)" fill="#3f3d56"/>
  <rect width="4.18849" height="2.51309" rx="0.48819" ry="0.48819" transform="matrix(-1, 0, 0, -1, 585.84198, 438.423004)" fill="#3f3d56"/>
  <rect width="4.18849" height="2.51309" rx="0.48819" ry="0.48819" transform="matrix(-1, 0, 0, -1, 577.468994, 438.423004)" fill="#3f3d56"/>
  <rect width="4.18849" height="2.51309" rx="0.48819" ry="0.48819" transform="matrix(-1, 0, 0, -1, 569.096008, 438.423004)" fill="#3f3d56"/>
  <rect width="4.18849" height="2.51309" rx="0.48819" ry="0.48819" transform="matrix(-1, 0, 0, -1, 560.713013, 438.423004)" fill="#3f3d56"/>
  <rect width="4.18849" height="2.51309" rx="0.48819" ry="0.48819" transform="matrix(-1, 0, 0, -1, 552.340027, 438.423004)" fill="#3f3d56"/>
  <rect width="4.18849" height="2.51309" rx="0.48819" ry="0.48819" transform="matrix(-1, 0, 0, -1, 543.95697, 438.423004)" fill="#3f3d56"/>
  <rect width="4.18849" height="2.51309" rx="0.48819" ry="0.48819" transform="matrix(-1, 0, 0, -1, 535.583984, 438.423004)" fill="#3f3d56"/>
  <rect width="4.18849" height="2.51309" rx="0.48819" ry="0.48819" transform="matrix(-1, 0, 0, -1, 527.210999, 438.423004)" fill="#3f3d56"/>
  <rect width="4.18849" height="2.51309" rx="0.48819" ry="0.48819" transform="matrix(-1, 0, 0, -1, 518.828003, 438.423004)" fill="#3f3d56"/>
  <rect width="4.18849" height="2.51309" rx="0.48819" ry="0.48819" transform="matrix(-1, 0, 0, -1, 510.454987, 438.423004)" fill="#3f3d56"/>
  <rect width="4.18849" height="2.51309" rx="0.48819" ry="0.48819" transform="matrix(-1, 0, 0, -1, 502.071991, 438.423004)" fill="#3f3d56"/>
  <rect width="33.5079" height="2.51309" rx="0.48819" ry="0.48819" transform="matrix(-1, 0, 0, -1, 587.526001, 443.446991)" fill="#3f3d56"/>
  <g mask="url(#e7I4aDVbzAF118)">
    <g transform="translate(0 0.000001)">
      <g id="e7I4aDVbzAF44_to" transform="translate(560.807037,384.878571)">
        <g transform="translate(-560.807037,-384.87857)">
          <rect width="5.96585" height="3.12216" rx="1.56108" ry="1.56108" transform="translate(515.631 358.737)" fill="#fff"/>
          <rect width="5.96585" height="3.12216" rx="1.56108" ry="1.56108" transform="translate(548.154 358.737)" fill="#fff"/>
          <rect width="5.96585" height="3.12216" rx="1.56108" ry="1.56108" transform="translate(557.369 358.737)" fill="#fff"/>
          <rect width="20.7961" height="3.12216" rx="1.56108" ry="1.56108" transform="translate(523.835825 358.477)" fill="#fff"/>
          <rect width="20.7961" height="3.12216" rx="1.56108" ry="1.56108" transform="translate(567.841 358.477)" fill="#fff"/>
          <rect width="5.96585" height="3.12216" rx="1.56108" ry="1.56108" transform="translate(524.304 365.784)" fill="#fff"/>
          <rect width="5.96585" height="3.12216" rx="1.56108" ry="1.56108" transform="translate(556.827 365.784)" fill="#fff"/>
          <rect width="5.96585" height="3.12216" rx="1.56108" ry="1.56108" transform="translate(566.042 365.784)" fill="#fff"/>
          <rect width="20.7961" height="3.12216" rx="1.56108" ry="1.56108" transform="translate(533.15 365.523)" fill="#fff"/>
          <rect width="20.7961" height="3.12216" rx="1.56108" ry="1.56108" transform="translate(576.514 365.523)" fill="#fff"/>
          <rect width="5.96585" height="3.12216" rx="1.56108" ry="1.56108" transform="translate(532.977 372.83)" fill="#fff"/>
          <rect width="5.96585" height="3.12216" rx="1.56108" ry="1.56108" transform="translate(565.5 372.83)" fill="#fff"/>
          <rect width="5.96585" height="3.12216" rx="1.56108" ry="1.56108" transform="translate(574.715 372.83)" fill="#fff"/>
          <rect width="20.7961" height="3.12216" rx="1.56108" ry="1.56108" transform="translate(541.823 372.57)" fill="#fff"/>
          <rect width="20.7961" height="3.12216" rx="1.56108" ry="1.56108" transform="translate(585.187 372.57)" fill="#fff"/>
          <rect width="5.96585" height="3.12216" rx="1.56108" ry="1.56108" transform="translate(541.649 379.877)" fill="#fff"/>
          <rect width="5.96585" height="3.12216" rx="1.56108" ry="1.56108" transform="translate(574.172 379.877)" fill="#fff"/>
          <rect width="5.96585" height="3.12216" rx="1.56108" ry="1.56108" transform="translate(583.387 379.877)" fill="#fff"/>
          <rect width="20.7961" height="3.12216" rx="1.56108" ry="1.56108" transform="translate(550.496 379.617)" fill="#fff"/>
          <rect width="5.96585" height="3.12216" rx="1.56108" ry="1.56108" transform="translate(548.154 407.898)" fill="#fff"/>
          <rect width="5.96585" height="3.12216" rx="1.56108" ry="1.56108" transform="translate(557.369 407.898)" fill="#fff"/>
          <rect width="20.7961" height="3.12216" rx="1.56108" ry="1.56108" transform="translate(567.841 408.158)" fill="#fff"/>
          <rect width="5.96585" height="3.12216" rx="1.56108" ry="1.56108" transform="translate(515.631 407.898)" fill="#fff"/>
          <rect width="20.7961" height="3.12216" rx="1.56108" ry="1.56108" transform="translate(524.477 408.158)" fill="#fff"/>
          <rect width="5.96585" height="3.12216" rx="1.56108" ry="1.56108" transform="translate(524.304 400.851)" fill="#fff"/>
          <rect width="5.96585" height="3.12216" rx="1.56108" ry="1.56108" transform="translate(556.827 400.851)" fill="#fff"/>
          <rect width="5.96585" height="3.12216" rx="1.56108" ry="1.56108" transform="translate(566.042 400.851)" fill="#fff"/>
          <rect width="20.7961" height="3.12216" rx="1.56108" ry="1.56108" transform="translate(533.15 401.111)" fill="#fff"/>
          <rect width="5.96585" height="3.12216" rx="1.56108" ry="1.56108" transform="translate(532.977 393.804)" fill="#fff"/>
          <rect width="5.96585" height="3.12216" rx="1.56108" ry="1.56108" transform="translate(565.5 393.804)" fill="#fff"/>
          <rect width="5.96585" height="3.12216" rx="1.56108" ry="1.56108" transform="translate(574.715 393.804)" fill="#fff"/>
          <rect width="20.7961" height="3.12216" rx="1.56108" ry="1.56108" transform="translate(541.823 394.064)" fill="#fff"/>
          <rect width="5.96585" height="3.12216" rx="1.56108" ry="1.56108" transform="translate(541.649 386.758)" fill="#fff"/>
          <rect width="5.96585" height="3.12216" rx="1.56108" ry="1.56108" transform="translate(574.172 386.758)" fill="#fff"/>
          <rect width="5.96585" height="3.12216" rx="1.56108" ry="1.56108" transform="translate(583.387 386.758)" fill="#fff"/>
          <rect width="20.7961" height="3.12216" rx="1.56108" ry="1.56108" transform="translate(550.496 387.018)" fill="#fff"/>
        </g>
      </g>
      <g id="e7I4aDVbzAF81_to" transform="translate(560.807037,441.878571)">
        <g transform="translate(-560.807037,-384.87857)">
          <rect width="5.96585" height="3.12216" rx="1.56108" ry="1.56108" transform="translate(515.631 358.737)" fill="#fff"/>
          <rect width="5.96585" height="3.12216" rx="1.56108" ry="1.56108" transform="translate(548.154 358.737)" fill="#fff"/>
          <rect width="5.96585" height="3.12216" rx="1.56108" ry="1.56108" transform="translate(557.369 358.737)" fill="#fff"/>
          <rect width="20.7961" height="3.12216" rx="1.56108" ry="1.56108" transform="translate(523.835825 358.477)" fill="#fff"/>
          <rect width="20.7961" height="3.12216" rx="1.56108" ry="1.56108" transform="translate(567.841 358.477)" fill="#fff"/>
          <rect width="5.96585" height="3.12216" rx="1.56108" ry="1.56108" transform="translate(524.304 365.784)" fill="#fff"/>
          <rect width="5.96585" height="3.12216" rx="1.56108" ry="1.56108" transform="translate(556.827 365.784)" fill="#fff"/>
          <rect width="5.96585" height="3.12216" rx="1.56108" ry="1.56108" transform="translate(566.042 365.784)" fill="#fff"/>
          <rect width="20.7961" height="3.12216" rx="1.56108" ry="1.56108" transform="translate(533.15 365.523)" fill="#fff"/>
          <rect width="20.7961" height="3.12216" rx="1.56108" ry="1.56108" transform="translate(576.514 365.523)" fill="#fff"/>
          <rect width="5.96585" height="3.12216" rx="1.56108" ry="1.56108" transform="translate(532.977 372.83)" fill="#fff"/>
          <rect width="5.96585" height="3.12216" rx="1.56108" ry="1.56108" transform="translate(565.5 372.83)" fill="#fff"/>
          <rect width="5.96585" height="3.12216" rx="1.56108" ry="1.56108" transform="translate(574.715 372.83)" fill="#fff"/>
          <rect width="20.7961" height="3.12216" rx="1.56108" ry="1.56108" transform="translate(541.823 372.57)" fill="#fff"/>
          <rect width="20.7961" height="3.12216" rx="1.56108" ry="1.56108" transform="translate(585.187 372.57)" fill="#fff"/>
          <rect width="5.96585" height="3.12216" rx="1.56108" ry="1.56108" transform="translate(541.649 379.877)" fill="#fff"/>
          <rect width="5.96585" height="3.12216" rx="1.56108" ry="1.56108" transform="translate(574.172 379.877)" fill="#fff"/>
          <rect width="5.96585" height="3.12216" rx="1.56108" ry="1.56108" transform="translate(583.387 379.877)" fill="#fff"/>
          <rect width="20.7961" height="3.12216" rx="1.56108" ry="1.56108" transform="translate(550.496 379.617)" fill="#fff"/>
          <rect width="5.96585" height="3.12216" rx="1.56108" ry="1.56108" transform="translate(548.154 407.898)" fill="#fff"/>
          <rect width="5.96585" height="3.12216" rx="1.56108" ry="1.56108" transform="translate(557.369 407.898)" fill="#fff"/>
          <rect width="20.7961" height="3.12216" rx="1.56108" ry="1.56108" transform="translate(567.841 408.158)" fill="#fff"/>
          <rect width="5.96585" height="3.12216" rx="1.56108" ry="1.56108" transform="translate(515.631 407.898)" fill="#fff"/>
          <rect width="20.7961" height="3.12216" rx="1.56108" ry="1.56108" transform="translate(524.477 408.158)" fill="#fff"/>
          <rect width="5.96585" height="3.12216" rx="1.56108" ry="1.56108" transform="translate(524.304 400.851)" fill="#fff"/>
          <rect width="5.96585" height="3.12216" rx="1.56108" ry="1.56108" transform="translate(556.827 400.851)" fill="#fff"/>
          <rect width="5.96585" height="3.12216" rx="1.56108" ry="1.56108" transform="translate(566.042 400.851)" fill="#fff"/>
          <rect width="20.7961" height="3.12216" rx="1.56108" ry="1.56108" transform="translate(533.15 401.111)" fill="#fff"/>
          <rect width="5.96585" height="3.12216" rx="1.56108" ry="1.56108" transform="translate(532.977 393.804)" fill="#fff"/>
          <rect width="5.96585" height="3.12216" rx="1.56108" ry="1.56108" transform="translate(565.5 393.804)" fill="#fff"/>
          <rect width="5.96585" height="3.12216" rx="1.56108" ry="1.56108" transform="translate(574.715 393.804)" fill="#fff"/>
          <rect width="20.7961" height="3.12216" rx="1.56108" ry="1.56108" transform="translate(541.823 394.064)" fill="#fff"/>
          <rect width="5.96585" height="3.12216" rx="1.56108" ry="1.56108" transform="translate(541.649 386.758)" fill="#fff"/>
          <rect width="5.96585" height="3.12216" rx="1.56108" ry="1.56108" transform="translate(574.172 386.758)" fill="#fff"/>
          <rect width="5.96585" height="3.12216" rx="1.56108" ry="1.56108" transform="translate(583.387 386.758)" fill="#fff"/>
          <rect width="20.7961" height="3.12216" rx="1.56108" ry="1.56108" transform="translate(550.496 387.018)" fill="#fff"/>
        </g>
      </g>
    </g>
    <mask id="e7I4aDVbzAF118" mask-type="luminance">
      <path d="M704.99939,506.52881v83.58039c.002103,1.214933.986477,2.199307,2.20141,2.20141h124.88546c1.214935-.002097,2.199313-.986475,2.20141-2.20141v-83.58039c-.000113-1.216502-.984911-2.203353-2.20141-2.206h-124.88546c-1.216495.002658-2.201286.989502-2.20141,2.206Z" transform="matrix(.764634 0 0 0.602719-28.685686 54.512058)" fill="#fff"/>
    </mask>
  </g>
  <g id="e7I4aDVbzAF120_to" transform="matrix(1, 0, 0, 1, -206.589996, -174.104095)">
    <path d="M711.50727,654.35273l-13.34954-21.10162l41.902-33.40283l17.29534-19.16107c4.572784-5.066043,11.494951-7.317574,18.173034-5.911032s12.104036,6.258842,14.244966,12.738932v0c3.240506,9.808392-1.877179,20.420041-11.57015,23.991l-27.3488,10.07535Z" transform="translate(0,0)" fill="#ffb6b6"/>
  </g>
  <path d="M398.28,501.35193v102.56h71.85v-102.56c.002505-1.514252-.983247-2.852928-2.43-3.3-.332174-.109714-.680197-.163776-1.03-.16h-64.92c-.919115-.001784-1.801243.361859-2.452094,1.010833s-1.017037,1.530051-1.017906,2.449167Zm28.04,35.24c.039038-4.208266,3.461553-7.59918,7.67-7.59918s7.630962,3.390914,7.67,7.59918v11.9c-.021553,4.220737-3.449208,7.630934-7.67,7.630934s-7.648447-3.410197-7.67-7.630934Z" transform="matrix(1, 0, 0, 1, -206.589996, -163.871002)" fill="#d0cfdf"/>
  <path d="M398.06006,600.632v9.89c.00337,1.066139.863892,1.93112,1.93,1.94h68.43c1.067589-.00535,1.930168-.872397,1.93-1.94v-9.89Z" transform="matrix(1, 0, 0, 1, -206.589996, -163.871002)" fill="#3f3d56"/>
  <path d="M285.25,346.832v187.25992c.003937,4.968931,4.031069,8.996063,9,9h277.5c4.96894-.003915,8.996085-4.03106,9-9v-187.25992c-.011823-4.964037-4.035953-8.983696-9-8.99h-277.5c-4.964038.006326-8.988155,4.025972-9,8.99Z" transform="matrix(1, 0, 0, 1, -206.589996, -163.871002)" fill="#d8d7e8"/>
  <path d="M291.76,349.16193v182.62c.004585,2.654588,2.155412,4.805415,4.81,4.81h272.87c2.654597-.004563,4.805437-2.155403,4.81-4.81v-182.62c-.000253-2.658005-2.152001-4.814227-4.81-4.82h-272.87c-2.65799.005795-4.809725,2.162004-4.81,4.82Z" transform="matrix(1, 0, 0, 1, -206.589996, -163.871002)" style="fill: rgb(84, 110, 122);"/>
  <path d="M342.4,611.79193c.5627.705562,1.417543,1.114561,2.32,1.11h162.34c.899115-.001123,1.749901-.407161,2.316293-1.105451s.788136-1.614552.603707-2.494549l-2.52-11.97c-.212224-.991787-.912339-1.808588-1.86-2.17-.337683-.13248-.697259-.200308-1.06-.19995h-157.31c-.362741-.000364-.722318.067464-1.06.19995-.947688.361373-1.647819,1.178192-1.86,2.17l-2.52,11.97c-.181583.879502.042455,1.794019.61,2.49Z" transform="matrix(1, 0, 0, 1, -206.589996, -163.871002)" fill="#d8d7e8"/>
  <ellipse rx="5.95043" ry="6.08304" transform="matrix(1, 0, 0, 1, 116.051003, 196.330002)" style="fill: rgb(255, 96, 92);"/>
  <ellipse rx="5.95043" ry="6.08304" transform="matrix(1, 0, 0, 1, 136.606995, 196.330002)" style="fill: rgb(255, 189, 68);"/>
  <ellipse rx="5.95043" ry="6.08304" transform="matrix(1, 0, 0, 1, 157.162994, 196.330002)" style="fill: rgb(0, 202, 78);"/>
  <path d="M548.20637,351.622h-14.6c-.600244.013988-1.079549.504593-1.079549,1.105s.479305,1.091012,1.079549,1.105h14.6c.604195-.008525,1.089518-.500745,1.089518-1.105s-.485323-1.096475-1.089518-1.105Z" transform="matrix(1, 0, 0, 1, -206.589996, -159.871002)" style="fill: rgb(230, 230, 230);"/>
  <path d="M548.20637,355.772h-14.6c-.600758.013281-1.080841.504095-1.080841,1.105s.480083,1.091719,1.080841,1.105h14.6c.605089-.007281,1.091783-.499868,1.091783-1.105s-.486694-1.097719-1.091783-1.105Z" transform="matrix(1, 0, 0, 1, -206.589996, -159.871002)" style="fill: rgb(230, 230, 230);"/>
  <path d="M548.20637,359.92194h-14.6c-.600244.013988-1.079549.504593-1.079549,1.105s.479305,1.091012,1.079549,1.105h14.6c.604195-.008525,1.089518-.500745,1.089518-1.105s-.485323-1.096475-1.089518-1.105Z" transform="matrix(1, 0, 0, 1, -206.589996, -159.871002)" style="fill: rgb(230, 230, 230);"/>
  <path d="M900.18575,604.97238c.903863,2.631672,3.400981,4.380798,6.1831,4.331l26.49183-.68178c2.805621-.05465,5.240214-1.95035,5.98085-4.657l3.74888-40.08721c1.330069.602548,2.778036.900069,4.23793.87079c5.334126-.133901,9.549741-4.566614,9.41584-9.90074s-4.566614-9.549741-9.90074-9.41584c-.583509-.00188-1.165545.058651-1.73618.18056-1.254914-1.35769-3.025324-2.121567-4.87405-2.103l-40.75051,1.05229c-.33804.012474-.674363.054231-1.00519.1248-1.808065.337049-3.381925,1.439778-4.316098,3.024083s-1.137313,3.495268-.557082,5.240557Zm43.17345-43.81684l2.66764-9.55274c.303454-1.103493.310477-2.267506.02036-3.37458.12944-.00034.24363-.06169.37307-.062c3.808355-.078749,6.962281,2.939102,7.05146,6.747227s-2.920023,6.970305-6.72789,7.069913c-1.182499.036966-2.352692-.249241-3.38464-.82782Z" transform="matrix(1, 0, 0, 1, -206.589996, -163.871002)" fill="#e9e8f9"/>
  <path d="M897.97751,544.68623c.86818,4.96412,10.62909,8.45387,22.36585,7.84729c10.79271-.49726,19.61745-4.287,21.23421-8.7785-.598346-.176968-1.22055-.259916-1.84436-.24588l-40.75051,1.05229c-.33804.012474-.674363.054231-1.00519.1248Z" transform="matrix(1, 0, 0, 1, -206.589996, -163.871002)" fill="#d8d7e8"/>
  <path d="M922.49438,582.94415c.053653-.013576.104659-.036025.15091-.06642l5.75315-3.76566c.141297-.092114.226527-.249347.226592-.418018s-.085045-.32597-.226272-.418192l-5.97978-3.91667c-.149316-.098808-.340085-.11018-.500082-.02981s-.264769.240198-.274648.418974.076643.349176.22681.446686l5.34091,3.49818-5.114,3.34794c-.204481.133705-.282366.395621-.184168.619333s.343707.343674.580538.283667Z" transform="matrix(1, 0, 0, 1, -206.589996, -163.871002)" fill="#546e7a"/>
  <path d="M913.40762,583.36319c.197517-.050002.344937-.214853.372647-.416707s-.069832-.400334-.246567-.501713l-5.30306-3.04034l5.1256-3.80723c.143278-.106465.218873-.281281.198311-.458596s-.13416-.33019-.298-.40104-.353033-.048909-.496311.057556l-5.73862,4.26265c-.135463.100399-.211133.262363-.201216.430683s.104081.320279.250396.404077l5.96525,3.41968c.11254.064592.245792.082875.37157.05098Z" transform="matrix(1, 0, 0, 1, -206.589996, -163.871002)" fill="#546e7a"/>
  <path d="M921.92215,586.24416c.048383-.012085.094599-.0316.137-.05785.113408-.068841.19479-.179949.226213-.308841s.010308-.264988-.058693-.378299l-8.15548-13.40836c-.143994-.235387-.451391-.30973-.687035-.166157s-.310536.450837-.167385.686737l8.15548,13.40835c.114277.187273.337222.27826.5499.22442Z" transform="matrix(1, 0, 0, 1, -206.589996, -163.871002)" fill="#546e7a"/>
  <g id="e7I4aDVbzAF137_to" transform="matrix(1, 0, 0, 1, 234.744125, 266.249969)">
    <rect width="50.7192" height="10.8457" rx="3.26417" ry="3.26417" transform="translate(-25.359118,-5.422969)" style="fill: rgb(230, 230, 230);"/>
  </g>
  <rect width="102.236" height="10.8457" rx="3.26417" ry="3.26417" transform="matrix(1, 0, 0, 1, 183.626007, 282.519012)" fill="#e6e6e6"/>
  <rect width="102.236" height="10.8457" rx="3.26417" ry="3.26417" transform="matrix(1, 0, 0, 1, 183.626007, 304.209991)" fill="#e6e6e6"/>
  <path d="M497.30123,540.717l.21675.68444.01142.02283l6.52515,19.838l7.50627,22.86094l14.1227,42.96133.13688,6.67346v.02283l1.04949,53.6845-2.90894,7.2781l3.274,11.93237c0,0-1.50582-18.037-9.5824-7.67884-4.57448,5.8864-9.92468,11.90961-14.31668,17.55642q9.59964,3.88436,19.50716,7.0271c1.426.45633,2.86334.88983,4.30071,1.32333q.46194.13692.924.27377c21.894732,6.47494,44.529897,10.113281,67.35086,10.82587c1.18637.03425,2.35.057,3.47932.07986.39932.01142.78714.02284,1.175.02284c1.27765.01142,2.54389.02277,3.82154.02277q3.86721,0,7.70018-.11405c18.913231-.533028,37.716139-3.076039,56.09149-7.58613-.12547-7.58606-.46768-16.44984-.9582-25.91819-.22817-4.64293-5.3502-9.67369-5.65823-14.53336-.21675-3.65047,4.38057-7.08419,4.141-10.79169-1.55143-22.82675-3.49075-14.06417-4.92813-30.22882q-.22245-2.37852-.41066-4.55165c-.924-10.381-1.56284-16.872-1.56284-16.872l6.13733-38.68338l9.6395-60.73442-.74153-1.22063-.83274-.41066-50.844-25.16532-2.76064-7.07276c-1.645619-4.168637-5.659827-6.918539-10.14143-6.94731l-33.4929-.13688c-3.52649-.015902-6.844041,1.670484-8.90946,4.52888l-9.069,12.55978Z" transform="matrix(1, 0, 0, 1, -206.86879, -163.871002)" fill="#ebebf4"/>
  <path d="M533.40653,617.52479L525.8204,633.758l-5.179,11.08822-8.90939,46.646-4.46044,4.73414L503.45,679.467l-39.99772,8.88094c-1.31191-7.28951-.3512.24662-1.16117-7.75009.22817-.22817.46768-.45634.70727-.68451.63882-.59322,1.175-1.15218,1.1636-1.68831-.45633-27.58374.9126-74.52633,12.34311-102.96564c1.790215-4.643421,4.150675-9.046309,7.02709-13.1074.22817-.308.44492-.61606.66167-.924c5.27034-7.3808,8.60136-14.64748,13.32415-19.81511v-.01142c.029387-.023704.056159-.05048.07986-.07987.017167-.008536.032625-.020144.04561-.03425l32.44341-17.20272l1.39177,39.10546.99247,28.10851Z" transform="matrix(1, 0, 0, 1, -206.589996, -163.871002)" fill="#d8d7e8"/>
  <path d="M650.3914,622.13549l9.476,20.275l3.30742,7.06091l8.90681,46.64162l4.44575,4.72264l3.83039-16.75524l1.7998-.36918l32.4585-6.72243l9.46058,30.04631c4.395827-7.324329,3.032837-16.730273-3.26122-22.50556-.64606-.58457-1.18444-1.15373-1.16913-1.69211.53847-32.4431-1.446-91.68363-19.36733-116.06588-5.69179-7.73777-9.1068-15.44474-14.07562-20.82885-.0154-.0153-.0154-.0307-.03071-.0307L674.0814,526.1139l-.73836-1.21533-.83066-.41528Z" transform="matrix(1, 0, 0, 1, -206.589996, -163.871002)" fill="#d8d7e8"/>
  <circle r="44.5583" transform="matrix(1, 0, 0, 1, 386.397003, 267.200989)" fill="#ffb6b6"/>
  <path d="M653.21227,399.94791c-.697824-.745558-1.668925-1.175153-2.69-1.19l.67-1.86c.445251-1.192816.213201-2.533004-.607173-3.50668s-2.101762-1.42974-3.352827-1.19332l-2.44.47.23-1.63c.179466-1.23509-.305861-2.473254-1.276817-3.25741s-2.283536-.997999-3.453183-.56259c-1.059261.416912-2.250255.332367-3.24-.23-.993096-.544864-1.695538-1.499764-1.92-2.61005l-.85-4.1-.09-.22c-4.14-6.9-12.1-11.92-21.84-13.76-8.67005-1.65-17.56-.81-26.13-.02-3.4.32-7.24.68-10.44,2.64-2.72,1.68-5.02,5.04-4.55,8.43-8.45-2.59-17.51,2.58-22,9.1-5.32,7.76-6.19,17.48-6.33,25.08-.38,17.98,3.33,32.69,11,43.73.56.8.7,2.47,1.81,3.03l-.23-.37c1.24.62,2.5,1.62,2.03,2.69-1.35,3.08,7.62,9.89,13.94,12.14c11.53,4.11,26.86,3.76,37.64,2.28l.38-2.55c3.89-.53,6.63-1.54,7.4-3.12c1.36005-1.16,2.52-2.2,3.53-3.16l.01-.01c.02-.02.06-.05.08-.07c4.87-4.67,6-7.32995,6.51-11.37994.49-3.97-.38-8-1.27-11.63c18.74,2.9-7.38-19.96,10.08-24.38.200271-.061721.403944-.111804.61-.15.51-.12,1.02-.24,1.51-.38c2.362001-.641133,4.623581-1.607016,6.72-2.87c4.88-2.97,6.49-6.91,9.01-11.35.746288-1.29744.564089-2.929138-.45-4.03001Z" transform="matrix(1, 0, 0, 1, -206.589996, -163.871002)" fill="#2f2e41"/>
  <path d="M750.58227,625.3079c-.01,1.75-.03,4.2-.11,7.23q-.015.63-.03,1.29c-.13,5.57-.26,10.24-.47,15.43-.01.36-.02.71-.04,1.07-.28,7.24-.72,15.67-1.48,29.02-1.41,24.66-3.87,3.39-6.34,12.04-.12.43-.25.94-.37,1.54-.374028,2.176947-1.005109,4.301808-1.88,6.33-1.31.78-2.66,1.53-3.99,2.28-3.79,2.11-7.63995,4.13995-11.51995,6.07-2.18006,1.08-4.37,2.14-6.57,3.16-.35.16-.69.32-1.03.47-11.265852,5.210939-22.876547,9.64138-34.75,13.26-2.32.7-4.63,1.38-6.97,2.01-2.44.68-4.88,1.32-7.35,1.92-18.374781,4.510993-37.177154,7.055297-56.09,7.59-2.55.08-5.12.11-7.7.11-1.28,0-2.54-.01-3.82-.02-.39,0-.78-.01-1.17-.02-1.13-.03-2.3-.05-3.48-.08-22.821064-.7118-45.45622-4.351574-67.35-10.83l-.93-.27c-1.44-.44-2.87-.87-4.3-1.33q-9.90006-3.135-19.51-7.02-7.335-2.955-14.5-6.34c-.043601-.011796-.084402-.032196-.12-.06-1-.46-2.01-.94-3.01-1.43-.13-.07-.27-.14-.41-.21q-5.59506-2.73-11.07-5.72c-3.07-7.05005-7.39-8.4-10.07-14.6-.779999-1.84196-1.343764-3.768158-1.68-5.74c0-.02-.01-.04-.01-.07.28,3.72-1.19-6.6-.01-.04-.01-.12-.02-.25-.03-.4-.03-.36-.06994-.8-.12994-1.35-3.43-33.49-3.21-71.79-4.7-103.35q-.15006-3.06-.31-5.86c-.03-.62-.07-1.23-.11005-1.83.07-.18.15-.37.24-.55.019156-.051845.04257-.102016.07-.15.02949-.062056.06289-.122177.1-.18.02-.03.05-.07.07-.1.014617-.034319.031315-.067715.05-.1.09-.14.19-.29.3-.43.05-.06.09-.11005.14-.16.034528-.051092.07479-.098064.12-.14.030683-.048061.06768-.091785.11-.13.04-.04.08-.09.13-.13995.021381-.031474.048526-.058619.08-.08.079089-.090872.166098-.174534.26-.25.356787-.328288.737872-.629144,1.14-.9.13995-.09.29-.18.43-.28c1.007786-.602866,2.06893-1.111679,3.17-1.52.38-.14.76-.27,1.17-.41.15-.04.29-.09.44-.14.22-.07.44-.14.67-.19c1.14-.34,2.37-.63,3.7-.9.16-.03.33-.06.5-.1.24-.05.49-.09.74-.13.34-.06.69-.12,1.04-.18c2.97-.47,6.34-.82,10.06-1.05q.525-.03,1.05-.06c.41-.02.82-.04,1.24-.06.35-.02.71-.03,1.07-.04.35-.02.71-.03,1.08-.04c1.01-.03,2.05-.06,3.11-.08c3.02-.06,6.2-.04,9.54.03c1.55.04,3.13.08,4.75.15.11005,0,.21.01.31.01c1.41.05,2.83.11,4.29.19c1.02.05,2.05.1,3.07995.16.97.06,1.95.12,2.94.19.77.04,1.54.1,2.32.15.66.05,1.32.1,1.98.14l.9.06c.49.04.98.07,1.48.12c1.1.09,2.2.18,3.32.27c1.11.1,2.24.2,3.37.3s2.27.21,3.41.32c.12.01.23.02.34.03c1.04.11005,2.08.21,3.13.32.24.02.49.04.73.07c1.0011.10058,2.02173.21832,3.032.32568.31006.03345.61847.06586.92944.09985.79139.08618,1.57154.16089,2.36847.25446c1.05.12,2.12006.23,3.16.37.81.09,1.62.18,2.43.28c1.27.15,2.56.31,3.85.48.49.06.98.12,1.47.19c3.68.46,7.4.97,11.18,1.5c5.73.81,11.55,1.69,17.41,2.64q8.80509,1.425,17.71,3.01c1.5.27,3,.54,4.51.82q1.02.19491,2.04.38995c1.16.21,2.32.43,3.48.65s2.32.44,3.48.67c1.38.27,2.77.54,4.15.81c9.09,1.8,18.12994,3.72,26.95,5.73c1.45.32995,2.9.67,4.34,1q4.32,1.005,8.56,2.04c.78.18,1.55.37,2.32.56c1.92.48,3.84.96,5.73,1.45l.33.09c1.39.34,2.75.69,4.11,1.05q4.815,1.26,9.47,2.55q3.09.855,6.11,1.73c3.01.87,5.96,1.75,8.83,2.64.71.22,1.42.44,2.12.65c2.1.65,4.17,1.31,6.18,1.97c1.6.52,3.16,1.05,4.7,1.58q2.31.795,4.53,1.59c.95.34,1.89.7,2.83,1.04c1.35.5,2.68,1,3.98,1.5.4.15.79.31,1.18.46.25.11.49.2.73.3.47.19.95.37,1.41.56.47.18.93.37,1.39.57.45.18.91.37,1.35.56.45.18.89.37,1.33.57.37.15.73.31,1.08.47.71.31,1.42.62,2.11.94.34.16.68.31,1.02.47l.78.36c.11.06.22.11.33.16.25.12.51.25.76.37.57995.27,1.15.56,1.71.83.75.38,1.48.76,2.18,1.13.71.37994,1.4.76,2.06,1.12994.11.06.21.12006.32.18006.15.07995.3.17.45.25.51.29,1,.59,1.49.87994.96.59,1.87,1.17,2.72,1.75.19.13.37.26.56.38.63.45,1.23.89,1.79,1.34c0,.01,0,.01.01.01.19.14.37.29.55.43.15.14.31.26.46.4.52.45,1,.87994,1.44,1.32.147508.135802.287705.279338.42.43.05822.048212.111788.10178.16.16.2.2.38.4.55.6.026374.027506.049832.057667.07.09.24.28.46.56.67.84.1.14.21.28.3.42.12.17.24.35.34.52.09.14.17.29.25.43006.212225.360382.392898.738436.54,1.12994.112396.265444.202702.539707.27.82.075768.265664.132603.536366.17008.81007Z" transform="matrix(1, 0, 0, 1, -206.589996, -163.871002)" fill="#d8d7e8"/>
  <path d="M750.58227,625.3079c-.01,1.75-.03,4.2-.11,7.23-.01.42-.03.85-.04,1.29-.1,4.25-.25,9.5-.46,15.43-.01.36-.02.71-.04,1.07-.28,7.24-.72,15.67-1.48,29.02-1.41,24.66-3.87,3.39-6.34,12.04-6.86-4.22-14.38-8.64-22.42-13.18q-2.175-1.23-4.39-2.47c-16.08-8.97-34.04-18.37006-52.79-27.68-.74-.37-1.49-.74-2.23-1.1-42.95-21.23-89.83-41.88-127.81-55.66-7.33-2.66-14.33-5.06-20.91-7.17005-13.86-4.43-25.84-7.53-35.06-8.87-9.6-1.4-16.23-.9-18.91,1.99q-.15006-3.06-.31-5.86-.06006-.93-.12-1.83c.06171-.16462.14191-.32172.21955-.48017.01111-.02313.019-.047.03045-.06982.019156-.051845.04257-.102016.07-.15.02949-.062056.06289-.122177.1-.18.03252-.070878.072764-.137951.12-.2.09-.14.19-.29.3-.43.08089-.104879.167698-.205059.26-.30005.030683-.048061.06768-.091785.11-.13.04-.04.08-.09.13-.13995.021381-.031474.048526-.058619.08-.08.079089-.090872.166098-.174534.26-.25.356787-.328288.737872-.629144,1.14-.9.13995-.09.29-.18.43-.28c1.007786-.602866,2.06893-1.111679,3.17-1.52.38-.14.76-.27,1.17-.41.15-.04.29-.09.44-.14.22-.07.44-.14.67-.19c1.14-.34,2.37-.63,3.7-.9.4-.08.82-.16,1.24-.23.34-.06.69-.12,1.04-.18c2.97-.47,6.34-.82,10.06-1.05q.525-.03,1.05-.06c.41-.02.82-.04,1.24-.06.35-.02.71-.03,1.07-.04.35-.02.71-.03,1.08-.04c1.01-.03,2.05-.06,3.11-.08c3.02-.05,6.2-.03,9.54.04c1.55.03,3.13.08,4.75.15.1,0,.21.01.31.01c1.41.04,2.84.11,4.29.18c1.02.05,2.05.1,3.07995.16.97.06,1.95.12,2.94.19.77.04,1.54.1,2.32.15.66.05,1.32.1,1.98.14.79.06,1.58.12,2.38.18c1.1.09,2.2.18,3.32.27c1.11.1,2.24.2,3.37.3s2.27.21,3.41.32c.12.01.23.02.34.03c1.04.11005,2.08.21,3.13.32q8.73.885,17.97,2.07q5.52.705,11.18,1.51c5.73.81,11.55,1.69,17.41,2.63q8.80509,1.425,17.71,3.01c1.5.27,3,.54,4.51.82q2.76.50994,5.52,1.04c1.16.22,2.32.44,3.48.67c1.38.27,2.77.54,4.15.81c9.09,1.8,18.12994,3.72,26.95,5.73c1.45.32995,2.9.67,4.34,1q4.32,1.005,8.56,2.04c.78.19,1.55.38,2.32.57q2.895.72,5.73,1.44v.01c.11.02.22.05.33.08c1.38.35,2.75.7,4.11,1.06q4.815,1.26,9.47,2.54c2.06.57995,4.1,1.15,6.11,1.73c3.01.88,5.96,1.76,8.83,2.64.71.22,1.42.44,2.12.65q3.15.99,6.18,1.97c1.6.52,3.16,1.05,4.7,1.58q2.31.795,4.53,1.59c.96.34,1.9.69,2.83,1.03c1.36.5,2.68,1,3.98,1.51.4.15.79.31,1.18.46.73.28,1.44.57,2.14.86.47.18.93.37,1.39.57.45.18.91.37,1.35.56.45.18.89.37,1.33.57.37.15.73.31,1.08.47.71.31,1.42.62,2.11.94.34.16.68.31,1.02.47l.78.36c.11.06.22.11.33.16.85.4,1.67.8,2.47,1.2.75.38,1.48.76,2.18,1.13.83.43994,1.62.87,2.38,1.31.15.07995.3.17.45.25.51.29,1,.59,1.49.87994.96.59,1.87,1.17,2.72,1.75.84.58,1.62,1.15,2.35,1.72c0,.01,0,.01.01.01.35.28.69.56,1.01.83.52.45,1,.87994,1.44,1.32.147508.135802.287705.279338.42.43.05822.048212.111788.10178.16.16.21.23.42.46.62006.69.24.28.46.56.67.84.1.14.21.28.3.42.12.17.24.35.34.52.09.14.17.29.25.43006.212225.360382.392898.738436.54,1.12994.109402.266559.199631.540589.27.82.075739.265676.132544.536388.16999.8101Z" transform="matrix(1, 0, 0, 1, -206.589996, -163.871002)" opacity="0.2"/>
</svg>